<svg width="41" height="40" viewBox="0 0 41 40" fill="none" xmlns="http://www.w3.org/2000/svg">
<g clip-path="url(#clip0_38424_5672)">
<mask id="mask0_38424_5672" style="mask-type:luminance" maskUnits="userSpaceOnUse" x="0" y="0" width="41" height="40">
<path d="M40.5 0H0.5V40H40.5V0Z" fill="white"/>
</mask>
<g mask="url(#mask0_38424_5672)">
<path fill-rule="evenodd" clip-rule="evenodd" d="M21.9286 0H19.0714V12.6506L14.3324 0.921164L11.6833 1.99147L16.5451 14.0248L7.36802 4.8477L5.34772 6.86802L14.1435 15.6638L2.74482 10.6836L1.60092 13.3018L13.6621 18.5714H0.5V21.4286H13.6621L1.60092 26.6982L2.74482 29.3164L14.1435 24.3362L5.34772 33.132L7.36802 35.1522L16.5451 25.9752L11.6833 38.0086L14.3324 39.0788L19.0714 27.3494V40H21.9286V27.3494L26.6676 39.0788L29.3166 38.0086L24.455 25.9752L33.632 35.1522L35.6522 33.132L26.8564 24.3362L38.2552 29.3164L39.399 26.6982L27.338 21.4286H40.5V18.5714H27.3378L39.399 13.3018L38.2552 10.6836L26.8564 15.6638L35.6522 6.868L33.632 4.8477L24.455 14.0248L29.3166 1.99147L26.6676 0.921164L21.9286 12.6506V0Z" fill="white"/>
</g>
</g>
<defs>
<clipPath id="clip0_38424_5672">
<rect width="40" height="40" fill="white" transform="translate(0.5)"/>
</clipPath>
</defs>
</svg>
