<svg width="20" height="20" viewBox="0 0 20 20" fill="none" xmlns="http://www.w3.org/2000/svg">
<path d="M6.6665 6.66667V5.83333C6.6665 4.94928 7.01769 4.10143 7.64281 3.47631C8.26794 2.85119 9.11578 2.5 9.99984 2.5C10.8839 2.5 11.7317 2.85119 12.3569 3.47631C12.982 4.10143 13.3332 4.94928 13.3332 5.83333V6.66667" stroke="#0A0D12" stroke-width="1.66667" stroke-linecap="round"/>
<path fill-rule="evenodd" clip-rule="evenodd" d="M2.98833 6.32183C2.5 6.81016 2.5 7.59516 2.5 9.16683V11.6668C2.5 14.8093 2.5 16.381 3.47667 17.3568C4.45333 18.3327 6.02417 18.3335 9.16667 18.3335H10.8333C13.9758 18.3335 15.5475 18.3335 16.5233 17.3568C17.4992 16.3802 17.5 14.8093 17.5 11.6668V9.16683C17.5 7.59516 17.5 6.81016 17.0117 6.32183C16.5233 5.8335 15.7383 5.8335 14.1667 5.8335H5.83333C4.26167 5.8335 3.47667 5.8335 2.98833 6.32183ZM8.33333 10.0002C8.33333 9.77915 8.24554 9.56719 8.08926 9.41091C7.93297 9.25463 7.72101 9.16683 7.5 9.16683C7.27899 9.16683 7.06702 9.25463 6.91074 9.41091C6.75446 9.56719 6.66667 9.77915 6.66667 10.0002V11.6668C6.66667 11.8878 6.75446 12.0998 6.91074 12.2561C7.06702 12.4124 7.27899 12.5002 7.5 12.5002C7.72101 12.5002 7.93297 12.4124 8.08926 12.2561C8.24554 12.0998 8.33333 11.8878 8.33333 11.6668V10.0002ZM13.3333 10.0002C13.3333 9.77915 13.2455 9.56719 13.0893 9.41091C12.933 9.25463 12.721 9.16683 12.5 9.16683C12.279 9.16683 12.067 9.25463 11.9107 9.41091C11.7545 9.56719 11.6667 9.77915 11.6667 10.0002V11.6668C11.6667 11.8878 11.7545 12.0998 11.9107 12.2561C12.067 12.4124 12.279 12.5002 12.5 12.5002C12.721 12.5002 12.933 12.4124 13.0893 12.2561C13.2455 12.0998 13.3333 11.8878 13.3333 11.6668V10.0002Z" fill="#0A0D12"/>
</svg>
