<svg width="65" height="64" viewBox="0 0 65 64" fill="none" xmlns="http://www.w3.org/2000/svg">
<mask id="mask0_37421_11473" style="mask-type:luminance" maskUnits="userSpaceOnUse" x="3" y="2" width="59" height="60">
<path d="M32.4997 58.6673C36.0022 58.6717 39.4711 57.9839 42.707 56.6435C45.943 55.3031 48.8821 53.3365 51.3557 50.8567C53.8355 48.3831 55.8021 45.4439 57.1425 42.208C58.4829 38.9721 59.1707 35.5032 59.1664 32.0007C59.1707 28.4981 58.4829 25.0292 57.1425 21.7933C55.8021 18.5574 53.8355 15.6182 51.3557 13.1447C48.8821 10.6649 45.943 8.6983 42.707 7.35789C39.4711 6.01749 36.0022 5.32969 32.4997 5.334C28.9971 5.32969 25.5283 6.01749 22.2923 7.35789C19.0564 8.6983 16.1173 10.6649 13.6437 13.1447C11.1639 15.6182 9.19732 18.5574 7.85691 21.7933C6.51651 25.0292 5.82871 28.4981 5.83303 32.0007C5.82871 35.5032 6.51651 38.9721 7.85691 42.208C9.19732 45.4439 11.1639 48.3831 13.6437 50.8567C16.1173 53.3365 19.0564 55.3031 22.2923 56.6435C25.5283 57.9839 28.9971 58.6717 32.4997 58.6673Z" fill="white" stroke="white" stroke-width="5.33333" stroke-linejoin="round"/>
<path d="M21.833 32L29.833 40L45.833 24" stroke="black" stroke-width="5.33333" stroke-linecap="round" stroke-linejoin="round"/>
</mask>
<g mask="url(#mask0_37421_11473)">
<path d="M0.5 0H64.5V64H0.5V0Z" fill="#44AB09"/>
</g>
</svg>
